solid solid
 facet normal -1 0 -0
  outer loop
   vertex -0.03 0.03 1.5
   vertex -0.03 0.03 -1.5
   vertex -0.03 -0.03 -1.5
  endloop
 endfacet
 facet normal -1 0 0
  outer loop
   vertex -0.03 -0.03 -1.5
   vertex -0.03 -0.03 1.5
   vertex -0.03 0.03 1.5
  endloop
 endfacet
 facet normal 0 -1 0
  outer loop
   vertex -0.03 -0.03 1.5
   vertex -0.03 -0.03 -1.5
   vertex 0.03 -0.03 -1.5
  endloop
 endfacet
 facet normal 0 -1 0
  outer loop
   vertex 0.03 -0.03 -1.5
   vertex 0.03 -0.03 1.5
   vertex -0.03 -0.03 1.5
  endloop
 endfacet
 facet normal 1 0 0
  outer loop
   vertex 0.03 -0.03 1.5
   vertex 0.03 -0.03 -1.5
   vertex 0.03 0.03 -1.5
  endloop
 endfacet
 facet normal 1 0 -0
  outer loop
   vertex 0.03 0.03 -1.5
   vertex 0.03 0.03 1.5
   vertex 0.03 -0.03 1.5
  endloop
 endfacet
 facet normal 0 1 0
  outer loop
   vertex 0.03 0.03 1.5
   vertex 0.03 0.03 -1.5
   vertex -0.03 0.03 -1.5
  endloop
 endfacet
 facet normal 0 1 0
  outer loop
   vertex -0.03 0.03 -1.5
   vertex -0.03 0.03 1.5
   vertex 0.03 0.03 1.5
  endloop
 endfacet
 facet normal 0 0 1
  outer loop
   vertex 0.03 0.03 1.5
   vertex -0.03 0.03 1.5
   vertex -0.03 -0.03 1.5
  endloop
 endfacet
 facet normal 0 0 1
  outer loop
   vertex -0.03 -0.03 1.5
   vertex 0.03 -0.03 1.5
   vertex 0.03 0.03 1.5
  endloop
 endfacet
 facet normal 0 -0 -1
  outer loop
   vertex 0.03 0.03 -1.5
   vertex 0.03 -0.03 -1.5
   vertex -0.03 -0.03 -1.5
  endloop
 endfacet
 facet normal 0 0 -1
  outer loop
   vertex -0.03 -0.03 -1.5
   vertex -0.03 0.03 -1.5
   vertex 0.03 0.03 -1.5
  endloop
 endfacet
endsolid solid
